<svg width="87" height="15" viewBox="0 0 87 15" fill="none" xmlns="http://www.w3.org/2000/svg">
<path d="M0.264205 15V0.454545H3.33949V6.45597H9.58239V0.454545H12.6506V15H9.58239V8.99148H3.33949V15H0.264205ZM17.6932 15H14.3977L19.419 0.454545H23.3821L28.3963 15H25.1009L21.4574 3.77841H21.3438L17.6932 15ZM17.4872 9.28267H25.2713V11.6832H17.4872V9.28267ZM30.147 15V0.454545H35.8857C36.9841 0.454545 37.9216 0.651041 38.6982 1.04403C39.4794 1.43229 40.0736 1.9839 40.4808 2.69886C40.8928 3.40909 41.0987 4.24479 41.0987 5.20597C41.0987 6.17187 40.8904 7.00284 40.4737 7.69886C40.0571 8.39015 39.4534 8.92045 38.6626 9.28977C37.8767 9.65909 36.925 9.84375 35.8075 9.84375H31.9652V7.37216H35.3104C35.8975 7.37216 36.3852 7.29167 36.7734 7.13068C37.1617 6.9697 37.4505 6.72822 37.6399 6.40625C37.834 6.08428 37.9311 5.68419 37.9311 5.20597C37.9311 4.72301 37.834 4.31581 37.6399 3.98438C37.4505 3.65294 37.1593 3.40199 36.7663 3.23153C36.3781 3.05634 35.888 2.96875 35.2962 2.96875H33.2223V15H30.147ZM38.0021 8.38068L41.6172 15H38.2223L34.6854 8.38068H38.0021ZM43.272 0.454545H47.0646L51.0703 10.2273H51.2408L55.2464 0.454545H59.0391V15H56.0561V5.53267H55.9354L52.1712 14.929H50.1399L46.3757 5.49716H46.255V15H43.272V0.454545ZM61.5728 15V0.454545H71.3739V2.99006H64.6481V6.45597H70.8697V8.99148H64.6481V12.4645H71.4023V15H61.5728ZM76.7024 0.454545L79.6357 5.41193H79.7493L82.6967 0.454545H86.1697L81.7308 7.72727L86.2692 15H82.7322L79.7493 10.0355H79.6357L76.6527 15H73.13L77.6825 7.72727L73.2152 0.454545H76.7024Z" fill="#111827"/>
</svg>
