<svg width="240" height="287" viewBox="0 0 240 287" fill="none" xmlns="http://www.w3.org/2000/svg">
<path fill-rule="evenodd" clip-rule="evenodd" d="M42.0251 116.11C17.3266 77.4415 47.2627 63.468 67.9714 58.9768C85.206 55.2391 148.129 55.2391 165.363 58.9768C186.072 63.468 209.521 78.6874 184.822 117.358C162.475 152.346 130.382 171.699 118.507 173.804C107.636 175.732 65.432 152.759 42.0251 116.11Z" fill="#FF6633"/>
<path fill-rule="evenodd" clip-rule="evenodd" d="M42.0251 116.11C17.3266 77.4415 47.2627 63.468 67.9714 58.9769C85.206 55.2392 148.129 55.2392 165.363 58.9769C183.888 62.9947 204.599 75.6 191.084 105.893C191.379 95.5582 188.541 81.6745 182.03 77.9541C173.453 73.0527 90.8628 73.2975 75.9136 74.5233C60.9644 75.7481 48.4654 82.8554 53.6116 109.323C56.2459 122.871 68.2541 140.977 79.3502 155.425C66.1095 145.566 52.2677 132.147 42.0251 116.11Z" fill="#D14D22"/>
<path fill-rule="evenodd" clip-rule="evenodd" d="M114.406 79.872C121.912 79.872 165.178 80.1091 165.178 95.4204V121.457C165.178 136.767 121.912 137.006 114.406 137.006C106.901 137.006 63.6354 136.768 63.6354 121.457V95.4204C63.6354 80.1101 106.901 79.872 114.406 79.872Z" fill="black"/>
<path fill-rule="evenodd" clip-rule="evenodd" d="M117.024 223.33C117.024 223.33 117.273 186.654 111.535 188.65C105.797 190.647 91.0768 214.847 96.0669 226.573C101.057 238.3 117.024 223.33 117.024 223.33Z" fill="#FF6633"/>
<path fill-rule="evenodd" clip-rule="evenodd" d="M117.024 223.33L117.025 222.57C113.08 224.293 105.58 226.538 102.748 220.342C100.379 215.162 102.48 203.907 104.516 195.801C98.599 204.371 92.6131 218.458 96.067 226.573C101.057 238.299 117.024 223.33 117.024 223.33Z" fill="#D14D22"/>
<path fill-rule="evenodd" clip-rule="evenodd" d="M125.32 222.965C125.32 222.965 119.005 186.837 124.994 187.856C130.984 188.874 149.506 210.305 146.525 222.696C143.544 235.086 125.32 222.965 125.32 222.965Z" fill="#FF6633"/>
<path fill-rule="evenodd" clip-rule="evenodd" d="M201.042 129.708C201.042 129.708 210.959 127.401 214.452 123.908C217.945 120.414 222.687 122.91 219.879 128.399C217.071 133.888 214.264 129.77 211.458 134.136C208.652 138.504 201.042 129.708 201.042 129.708Z" fill="black"/>
<path fill-rule="evenodd" clip-rule="evenodd" d="M197.889 153.092C197.889 153.092 205.118 158.772 206.569 162.321C208.022 165.871 212.516 163.075 211.615 160.822C210.715 158.569 203.96 150.918 203.96 150.918L205.26 148.981C205.26 148.981 215.662 160.663 216.357 162.52C217.053 164.377 221.863 161.926 221.612 160.033C221.361 158.142 207.194 145.19 207.194 145.19L208.101 143.402L224.153 156.268C224.153 156.268 226.243 155.308 227.109 153.186C227.975 151.064 225.242 148.954 225.242 148.954L209.197 139.796L208.786 137.786C208.786 137.786 225.838 144.11 227.14 143.445C228.441 142.781 229.107 138.88 229.107 138.88C229.107 138.88 218.15 135.743 212.84 133.997C207.529 132.252 204.015 132.877 204.015 132.877L197.889 153.092Z" fill="black"/>
<path fill-rule="evenodd" clip-rule="evenodd" d="M211.501 132.235C219.356 138.473 208.927 150.524 203.723 155.459C198.518 160.393 184.427 146.242 180.627 138.782C170.717 119.324 206.289 128.096 211.501 132.235Z" fill="#FF6633"/>
<path fill-rule="evenodd" clip-rule="evenodd" d="M211.501 132.235C219.356 138.473 208.927 150.524 203.723 155.459C203.562 155.611 203.392 155.746 203.214 155.862C203.685 151.259 203.394 145.766 200.899 140.693C196.373 131.487 185.464 129.184 180.961 128.619C187.522 123.672 207.677 129.199 211.501 132.235Z" fill="#D14D22"/>
<path fill-rule="evenodd" clip-rule="evenodd" d="M33.021 148.913C33.021 148.913 23.3162 151.992 18.5293 150.772C13.7422 149.552 10.9393 154.118 16.1557 157.404C21.3721 160.691 21.684 155.718 26.3259 158.039C30.9682 160.361 33.021 148.913 33.021 148.913Z" fill="black"/>
<path fill-rule="evenodd" clip-rule="evenodd" d="M47.6709 167.411C47.6709 167.411 44.3549 175.985 44.9189 179.778C45.4822 183.572 40.1907 183.462 39.8146 181.065C39.4385 178.669 41.3407 168.641 41.3407 168.641L39.2337 167.639C39.2337 167.639 36.2543 182.995 36.6043 184.946C36.9539 186.897 31.5668 187.247 30.8164 185.491C30.066 183.736 35.6355 165.367 35.6355 165.367L33.9427 164.293L26.709 183.552C26.709 183.552 24.422 183.791 22.5941 182.41C20.7658 181.028 22.0376 177.818 22.0376 177.818L31.1593 161.752L30.487 159.813C30.487 159.813 19.0529 173.956 17.5943 174.05C16.1362 174.144 13.5724 171.13 13.5724 171.13C13.5724 171.13 21.3925 162.837 25.067 158.625C28.742 154.414 32.0822 153.156 32.0822 153.156L47.6709 167.411Z" fill="black"/>
<path fill-rule="evenodd" clip-rule="evenodd" d="M25.3186 156.427C21.749 165.801 36.8685 170.838 43.8628 172.424C50.8571 174.01 55.7485 154.648 55.2073 146.294C53.7944 124.504 27.6871 150.207 25.3186 156.427Z" fill="#FF6633"/>
<path fill-rule="evenodd" clip-rule="evenodd" d="M25.3186 156.427C21.749 165.8 36.8685 170.838 43.8628 172.425C44.7017 172.614 45.5107 172.5 46.2843 172.142C41.8997 168.889 36.8472 164.244 35.844 159.564C34.5808 153.667 39.4555 144.701 42.6262 139.673C35.041 143.761 26.6161 153.019 25.3186 156.427Z" fill="#D14D22"/>
<path fill-rule="evenodd" clip-rule="evenodd" d="M90.3239 90.5285H92.6324V92.7114H90.3239V90.5285Z" fill="#99FF00"/>
<path fill-rule="evenodd" clip-rule="evenodd" d="M93.719 90.5285H96.0267V92.7114H93.719V90.5285Z" fill="#99FF00"/>
<path fill-rule="evenodd" clip-rule="evenodd" d="M97.1129 90.5285H99.4221V92.7114H97.1129V90.5285Z" fill="#99FF00"/>
<path fill-rule="evenodd" clip-rule="evenodd" d="M100.509 90.5285H102.817V92.7114H100.509V90.5285Z" fill="#99FF00"/>
<path fill-rule="evenodd" clip-rule="evenodd" d="M90.3239 93.923H92.6324V96.106H90.3239V93.923Z" fill="#99FF00"/>
<path fill-rule="evenodd" clip-rule="evenodd" d="M93.719 93.923H96.0267V96.106H93.719V93.923Z" fill="#99FF00"/>
<path fill-rule="evenodd" clip-rule="evenodd" d="M97.1129 93.923H99.4221V96.106H97.1129V93.923Z" fill="#99FF00"/>
<path fill-rule="evenodd" clip-rule="evenodd" d="M100.509 93.923H102.817V96.106H100.509V93.923Z" fill="#99FF00"/>
<path fill-rule="evenodd" clip-rule="evenodd" d="M90.3239 97.3185H92.6324V99.5005H90.3239V97.3185Z" fill="#99FF00"/>
<path fill-rule="evenodd" clip-rule="evenodd" d="M93.719 97.3185H96.0267V99.5005H93.719V97.3185Z" fill="#99FF00"/>
<path fill-rule="evenodd" clip-rule="evenodd" d="M97.1129 97.3185H99.4221V99.5005H97.1129V97.3185Z" fill="#99FF00"/>
<path fill-rule="evenodd" clip-rule="evenodd" d="M100.509 97.3185H102.817V99.5005H100.509V97.3185Z" fill="#99FF00"/>
<path fill-rule="evenodd" clip-rule="evenodd" d="M90.3239 100.713H92.6324V102.896H90.3239V100.713Z" fill="#99FF00"/>
<path fill-rule="evenodd" clip-rule="evenodd" d="M93.719 100.713H96.0267V102.896H93.719V100.713Z" fill="#99FF00"/>
<path fill-rule="evenodd" clip-rule="evenodd" d="M97.1129 100.713H99.4221V102.896H97.1129V100.713Z" fill="#99FF00"/>
<path fill-rule="evenodd" clip-rule="evenodd" d="M100.509 100.713H102.817V102.896H100.509V100.713Z" fill="#99FF00"/>
<path fill-rule="evenodd" clip-rule="evenodd" d="M90.3239 104.107H92.6324V106.29H90.3239V104.107Z" fill="#99FF00"/>
<path fill-rule="evenodd" clip-rule="evenodd" d="M93.719 104.107H96.0267V106.29H93.719V104.107Z" fill="#99FF00"/>
<path fill-rule="evenodd" clip-rule="evenodd" d="M97.1129 104.107H99.4221V106.29H97.1129V104.107Z" fill="#99FF00"/>
<path fill-rule="evenodd" clip-rule="evenodd" d="M100.509 104.107H102.817V106.29H100.509V104.107Z" fill="#99FF00"/>
<path fill-rule="evenodd" clip-rule="evenodd" d="M90.3239 107.502H92.6324V109.685H90.3239V107.502Z" fill="#99FF00"/>
<path fill-rule="evenodd" clip-rule="evenodd" d="M93.719 107.502H96.0267V109.685H93.719V107.502Z" fill="#99FF00"/>
<path fill-rule="evenodd" clip-rule="evenodd" d="M97.1129 107.502H99.4221V109.685H97.1129V107.502Z" fill="#99FF00"/>
<path fill-rule="evenodd" clip-rule="evenodd" d="M100.509 107.502H102.817V109.685H100.509V107.502Z" fill="#99FF00"/>
<path fill-rule="evenodd" clip-rule="evenodd" d="M90.3239 110.897H92.6324V113.08H90.3239V110.897Z" fill="#99FF00"/>
<path fill-rule="evenodd" clip-rule="evenodd" d="M93.719 110.897H96.0267V113.08H93.719V110.897Z" fill="#99FF00"/>
<path fill-rule="evenodd" clip-rule="evenodd" d="M97.1129 110.897H99.4221V113.08H97.1129V110.897Z" fill="#99FF00"/>
<path fill-rule="evenodd" clip-rule="evenodd" d="M100.509 110.897H102.817V113.08H100.509V110.897Z" fill="#99FF00"/>
<path fill-rule="evenodd" clip-rule="evenodd" d="M90.3239 114.292H92.6324V116.475H90.3239V114.292Z" fill="#99FF00"/>
<path fill-rule="evenodd" clip-rule="evenodd" d="M93.719 114.292H96.0267V116.475H93.719V114.292Z" fill="#99FF00"/>
<path fill-rule="evenodd" clip-rule="evenodd" d="M97.1129 114.292H99.4221V116.475H97.1129V114.292Z" fill="#99FF00"/>
<path fill-rule="evenodd" clip-rule="evenodd" d="M100.509 114.292H102.817V116.475H100.509V114.292Z" fill="#99FF00"/>
<path fill-rule="evenodd" clip-rule="evenodd" d="M90.3239 117.686H92.6324V119.869H90.3239V117.686Z" fill="#99FF00"/>
<path fill-rule="evenodd" clip-rule="evenodd" d="M93.719 117.686H96.0267V119.869H93.719V117.686Z" fill="#99FF00"/>
<path fill-rule="evenodd" clip-rule="evenodd" d="M97.1129 117.686H99.4221V119.869H97.1129V117.686Z" fill="#99FF00"/>
<path fill-rule="evenodd" clip-rule="evenodd" d="M100.509 117.686H102.817V119.869H100.509V117.686Z" fill="#99FF00"/>
<path fill-rule="evenodd" clip-rule="evenodd" d="M90.3239 121.081H92.6324V123.263H90.3239V121.081Z" fill="#99FF00"/>
<path fill-rule="evenodd" clip-rule="evenodd" d="M93.719 121.081H96.0267V123.263H93.719V121.081Z" fill="#99FF00"/>
<path fill-rule="evenodd" clip-rule="evenodd" d="M97.1129 121.081H99.4221V123.263H97.1129V121.081Z" fill="#99FF00"/>
<path fill-rule="evenodd" clip-rule="evenodd" d="M100.509 121.081H102.817V123.263H100.509V121.081Z" fill="#99FF00"/>
<path fill-rule="evenodd" clip-rule="evenodd" d="M126.194 90.5285H128.503V92.7114H126.194V90.5285Z" fill="#99FF00"/>
<path fill-rule="evenodd" clip-rule="evenodd" d="M129.589 90.5285H131.898V92.7114H129.589V90.5285Z" fill="#99FF00"/>
<path fill-rule="evenodd" clip-rule="evenodd" d="M132.984 90.5285H135.292V92.7114H132.984V90.5285Z" fill="#99FF00"/>
<path fill-rule="evenodd" clip-rule="evenodd" d="M136.378 90.5285H138.687V92.7114H136.378V90.5285Z" fill="#99FF00"/>
<path fill-rule="evenodd" clip-rule="evenodd" d="M126.194 93.923H128.503V96.106H126.194V93.923Z" fill="#99FF00"/>
<path fill-rule="evenodd" clip-rule="evenodd" d="M129.589 93.923H131.898V96.106H129.589V93.923Z" fill="#99FF00"/>
<path fill-rule="evenodd" clip-rule="evenodd" d="M132.984 93.923H135.292V96.106H132.984V93.923Z" fill="#99FF00"/>
<path fill-rule="evenodd" clip-rule="evenodd" d="M136.378 93.923H138.687V96.106H136.378V93.923Z" fill="#99FF00"/>
<path fill-rule="evenodd" clip-rule="evenodd" d="M126.194 97.3185H128.503V99.5005H126.194V97.3185Z" fill="#99FF00"/>
<path fill-rule="evenodd" clip-rule="evenodd" d="M129.589 97.3185H131.898V99.5005H129.589V97.3185Z" fill="#99FF00"/>
<path fill-rule="evenodd" clip-rule="evenodd" d="M132.984 97.3185H135.292V99.5005H132.984V97.3185Z" fill="#99FF00"/>
<path fill-rule="evenodd" clip-rule="evenodd" d="M136.378 97.3185H138.687V99.5005H136.378V97.3185Z" fill="#99FF00"/>
<path fill-rule="evenodd" clip-rule="evenodd" d="M126.194 100.713H128.503V102.896H126.194V100.713Z" fill="#99FF00"/>
<path fill-rule="evenodd" clip-rule="evenodd" d="M129.589 100.713H131.898V102.896H129.589V100.713Z" fill="#99FF00"/>
<path fill-rule="evenodd" clip-rule="evenodd" d="M132.984 100.713H135.292V102.896H132.984V100.713Z" fill="#99FF00"/>
<path fill-rule="evenodd" clip-rule="evenodd" d="M136.378 100.713H138.687V102.896H136.378V100.713Z" fill="#99FF00"/>
<path fill-rule="evenodd" clip-rule="evenodd" d="M126.194 104.107H128.503V106.29H126.194V104.107Z" fill="#99FF00"/>
<path fill-rule="evenodd" clip-rule="evenodd" d="M129.589 104.107H131.898V106.29H129.589V104.107Z" fill="#99FF00"/>
<path fill-rule="evenodd" clip-rule="evenodd" d="M132.984 104.107H135.292V106.29H132.984V104.107Z" fill="#99FF00"/>
<path fill-rule="evenodd" clip-rule="evenodd" d="M136.378 104.107H138.687V106.29H136.378V104.107Z" fill="#99FF00"/>
<path fill-rule="evenodd" clip-rule="evenodd" d="M126.194 107.502H128.503V109.685H126.194V107.502Z" fill="#99FF00"/>
<path fill-rule="evenodd" clip-rule="evenodd" d="M129.589 107.502H131.898V109.685H129.589V107.502Z" fill="#99FF00"/>
<path fill-rule="evenodd" clip-rule="evenodd" d="M132.984 107.502H135.292V109.685H132.984V107.502Z" fill="#99FF00"/>
<path fill-rule="evenodd" clip-rule="evenodd" d="M136.378 107.502H138.687V109.685H136.378V107.502Z" fill="#99FF00"/>
<path fill-rule="evenodd" clip-rule="evenodd" d="M126.194 110.897H128.503V113.08H126.194V110.897Z" fill="#99FF00"/>
<path fill-rule="evenodd" clip-rule="evenodd" d="M129.589 110.897H131.898V113.08H129.589V110.897Z" fill="#99FF00"/>
<path fill-rule="evenodd" clip-rule="evenodd" d="M132.984 110.897H135.292V113.08H132.984V110.897Z" fill="#99FF00"/>
<path fill-rule="evenodd" clip-rule="evenodd" d="M136.378 110.897H138.687V113.08H136.378V110.897Z" fill="#99FF00"/>
<path fill-rule="evenodd" clip-rule="evenodd" d="M126.194 114.292H128.503V116.475H126.194V114.292Z" fill="#99FF00"/>
<path fill-rule="evenodd" clip-rule="evenodd" d="M129.589 114.292H131.898V116.475H129.589V114.292Z" fill="#99FF00"/>
<path fill-rule="evenodd" clip-rule="evenodd" d="M132.984 114.292H135.292V116.475H132.984V114.292Z" fill="#99FF00"/>
<path fill-rule="evenodd" clip-rule="evenodd" d="M136.378 114.292H138.687V116.475H136.378V114.292Z" fill="#99FF00"/>
<path fill-rule="evenodd" clip-rule="evenodd" d="M126.194 117.686H128.503V119.869H126.194V117.686Z" fill="#99FF00"/>
<path fill-rule="evenodd" clip-rule="evenodd" d="M129.589 117.686H131.898V119.869H129.589V117.686Z" fill="#99FF00"/>
<path fill-rule="evenodd" clip-rule="evenodd" d="M132.984 117.686H135.292V119.869H132.984V117.686Z" fill="#99FF00"/>
<path fill-rule="evenodd" clip-rule="evenodd" d="M136.378 117.686H138.687V119.869H136.378V117.686Z" fill="#99FF00"/>
<path fill-rule="evenodd" clip-rule="evenodd" d="M126.194 121.081H128.503V123.263H126.194V121.081Z" fill="#99FF00"/>
<path fill-rule="evenodd" clip-rule="evenodd" d="M129.589 121.081H131.898V123.263H129.589V121.081Z" fill="#99FF00"/>
<path fill-rule="evenodd" clip-rule="evenodd" d="M132.984 121.081H135.292V123.263H132.984V121.081Z" fill="#99FF00"/>
<path fill-rule="evenodd" clip-rule="evenodd" d="M136.378 121.081H138.687V123.263H136.378V121.081Z" fill="#99FF00"/>
<path fill-rule="evenodd" clip-rule="evenodd" d="M63.5297 34.8604C68.5478 35.7601 73.3458 32.4212 74.2456 27.4032C75.1455 22.3852 71.8067 17.5871 66.789 16.6873C61.7712 15.7876 56.9732 19.1265 56.0731 24.1445C55.1733 29.1625 58.5121 33.9597 63.5297 34.8604Z" fill="black"/>
<path d="M63.8124 26.7728C62.786 25.9428 62.6261 24.4368 63.4553 23.4099C64.2841 22.3839 65.7912 22.2242 66.8176 23.0532C71.0379 26.4735 80.991 35.2072 89.1189 44.6465C94.2871 50.6485 98.7423 56.9764 100.621 62.5213C101.042 63.771 100.369 65.1288 99.1181 65.5495C97.8684 65.9702 96.5106 65.2971 96.0899 64.0464C94.4313 59.1517 90.3133 53.3516 85.5003 47.7618C77.6191 38.6102 67.9265 30.1069 63.8124 26.7728Z" fill="black"/>
<path fill-rule="evenodd" clip-rule="evenodd" d="M161.145 27.1619C156.487 29.234 151.032 27.137 148.96 22.4786C146.888 17.821 148.985 12.3651 153.643 10.2931C158.301 8.22199 163.757 10.3189 165.828 14.9764C167.901 19.6349 165.804 25.0909 161.145 27.1619Z" fill="black"/>
<path d="M158.94 19.3765C159.74 18.3256 159.535 16.8244 158.485 16.026C157.435 15.2267 155.933 15.4323 155.135 16.4821C151.852 20.8107 144.272 31.6671 138.632 42.7731C135.045 49.8364 132.23 57.044 131.728 62.8767C131.618 64.1915 132.596 65.3494 133.91 65.4593C135.225 65.5693 136.382 64.5911 136.493 63.2774C136.935 58.1284 139.549 51.5126 142.889 44.935C148.358 34.1666 155.742 23.597 158.94 19.3765Z" fill="black"/>
<path fill-rule="evenodd" clip-rule="evenodd" d="M123.594 188.526C128.245 193.392 142.085 208.872 139.63 218.381C138.37 223.266 137.358 226.191 136.612 227.94C140.966 228.851 145.215 228.138 146.525 222.696C149.506 210.305 130.984 188.874 124.994 187.855C124.42 187.757 123.959 188.005 123.594 188.526Z" fill="#D14D22"/>
<path fill-rule="evenodd" clip-rule="evenodd" d="M108.189 128.708H110.498V130.891H108.189V128.708Z" fill="#99FF00"/>
<path fill-rule="evenodd" clip-rule="evenodd" d="M111.584 128.708H113.893V130.891H111.584V128.708Z" fill="#99FF00"/>
<path fill-rule="evenodd" clip-rule="evenodd" d="M114.979 128.708H117.287V130.891H114.979V128.708Z" fill="#99FF00"/>
<path fill-rule="evenodd" clip-rule="evenodd" d="M118.374 128.708H120.682V130.891H118.374V128.708Z" fill="#99FF00"/>
<path fill-rule="evenodd" clip-rule="evenodd" d="M121.251 260.282C150.036 260.282 173.371 262.697 173.371 265.674C173.371 268.651 150.036 271.065 121.251 271.065C92.466 271.065 69.1309 268.651 69.1309 265.674C69.1309 262.697 92.466 260.282 121.251 260.282Z" fill="#2CBDC7"/>
</svg>
