<svg width="23" height="32" viewBox="0 0 23 32" fill="none" xmlns="http://www.w3.org/2000/svg">
<path d="M10.1667 30.9395C10.9477 31.7206 12.0523 31.7206 12.8333 30.9395L21.7137 22.0592C22.4947 21.2781 22.4947 20.1735 21.7137 19.3925L11.5 9.17882L1.28633 19.3925C0.50528 20.1735 0.50528 21.2781 1.28633 22.0592L10.1667 30.9395ZM13.5 2.72607C13.5 1.6215 12.6046 0.726074 11.5 0.726074C10.3954 0.726074 9.5 1.6215 9.5 2.72607H13.5ZM9.5 8.26446C9.5 9.36903 10.3954 10.2645 11.5 10.2645C12.6046 10.2645 13.5 9.36903 13.5 8.26446H9.5ZM13.5 15.1874C13.5 14.0829 12.6046 13.1874 11.5 13.1874C10.3954 13.1874 9.5 14.0829 9.5 15.1874H13.5ZM9.5 2.72607V8.26446H13.5V2.72607H9.5ZM9.5 15.1874V20.7258H13.5V15.1874H9.5Z" fill="#E86B35"/>
</svg>
