 <svg width="630" height="23" viewBox="0 0 630 23" fill="none" xmlns="http://www.w3.org/2000/svg">
        <path d="M629.409 2.52441C629.409 1.41984 628.514 0.524414 627.409 0.524414C626.305 0.524414 625.409 1.41984 625.409 2.52441H629.409ZM0.591064 20.5244C0.591064 21.629 1.48649 22.5244 2.59106 22.5244C3.69563 22.5244 4.59106 21.629 4.59106 20.5244H0.591064ZM5.90789 15.169C6.42204 14.1914 6.04632 12.9821 5.06871 12.4679C4.0911 11.9538 2.88179 12.3295 2.36764 13.3071L5.90789 15.169ZM8.89818 6.77657C7.92057 7.29072 7.54485 8.50003 8.059 9.47764C8.57314 10.4553 9.78245 10.831 10.7601 10.3168L8.89818 6.77657ZM24.2335 9C25.338 9 26.2335 8.10457 26.2335 7C26.2335 5.89543 25.338 5 24.2335 5V9ZM34.3809 5C33.2763 5 32.3809 5.89543 32.3809 7C32.3809 8.10457 33.2763 9 34.3809 9V5ZM50.6169 9C51.7214 9 52.6169 8.10457 52.6169 7C52.6169 5.89543 51.7214 5 50.6169 5V9ZM60.7643 5C59.6598 5 58.7643 5.89543 58.7643 7C58.7643 8.10457 59.6598 9 60.7643 9V5ZM77.0003 9C78.1048 9 79.0003 8.10457 79.0003 7C79.0003 5.89543 78.1048 5 77.0003 5V9ZM87.1477 5C86.0432 5 85.1477 5.89543 85.1477 7C85.1477 8.10457 86.0432 9 87.1477 9V5ZM103.384 9C104.488 9 105.384 8.10457 105.384 7C105.384 5.89543 104.488 5 103.384 5V9ZM113.531 5C112.427 5 111.531 5.89543 111.531 7C111.531 8.10457 112.427 9 113.531 9V5ZM129.767 9C130.872 9 131.767 8.10457 131.767 7C131.767 5.89543 130.872 5 129.767 5V9ZM139.915 5C138.81 5 137.915 5.89543 137.915 7C137.915 8.10457 138.81 9 139.915 9V5ZM156.15 9C157.255 9 158.15 8.10457 158.15 7C158.15 5.89543 157.255 5 156.15 5V9ZM166.298 5C165.193 5 164.298 5.89543 164.298 7C164.298 8.10457 165.193 9 166.298 9V5ZM182.534 9C183.638 9 184.534 8.10457 184.534 7C184.534 5.89543 183.638 5 182.534 5V9ZM192.681 5C191.577 5 190.681 5.89543 190.681 7C190.681 8.10457 191.577 9 192.681 9V5ZM208.917 9C210.022 9 210.917 8.10457 210.917 7C210.917 5.89543 210.022 5 208.917 5V9ZM219.065 5C217.96 5 217.065 5.89543 217.065 7C217.065 8.10457 217.96 9 219.065 9V5ZM235.301 9C236.405 9 237.301 8.10457 237.301 7C237.301 5.89543 236.405 5 235.301 5V9ZM245.448 5C244.344 5 243.448 5.89543 243.448 7C243.448 8.10457 244.344 9 245.448 9V5ZM261.684 9C262.789 9 263.684 8.10457 263.684 7C263.684 5.89543 262.789 5 261.684 5V9ZM271.832 5C270.727 5 269.832 5.89543 269.832 7C269.832 8.10457 270.727 9 271.832 9V5ZM288.068 9C289.172 9 290.068 8.10457 290.068 7C290.068 5.89543 289.172 5 288.068 5V9ZM298.215 5C297.11 5 296.215 5.89543 296.215 7C296.215 8.10457 297.11 9 298.215 9V5ZM314.451 9C315.555 9 316.451 8.10457 316.451 7C316.451 5.89543 315.555 5 314.451 5V9ZM324.598 5C323.494 5 322.598 5.89543 322.598 7C322.598 8.10457 323.494 9 324.598 9V5ZM340.834 9C341.939 9 342.834 8.10457 342.834 7C342.834 5.89543 341.939 5 340.834 5V9ZM350.982 5C349.877 5 348.982 5.89543 348.982 7C348.982 8.10457 349.877 9 350.982 9V5ZM367.218 9C368.322 9 369.218 8.10457 369.218 7C369.218 5.89543 368.322 5 367.218 5V9ZM377.365 5C376.261 5 375.365 5.89543 375.365 7C375.365 8.10457 376.261 9 377.365 9V5ZM393.601 9C394.706 9 395.601 8.10457 395.601 7C395.601 5.89543 394.706 5 393.601 5V9ZM403.749 5C402.644 5 401.749 5.89543 401.749 7C401.749 8.10457 402.644 9 403.749 9V5ZM419.984 9C421.089 9 421.984 8.10457 421.984 7C421.984 5.89543 421.089 5 419.984 5V9ZM430.132 5C429.027 5 428.132 5.89543 428.132 7C428.132 8.10457 429.027 9 430.132 9V5ZM446.368 9C447.472 9 448.368 8.10457 448.368 7C448.368 5.89543 447.472 5 446.368 5V9ZM456.515 5C455.411 5 454.515 5.89543 454.515 7C454.515 8.10457 455.411 9 456.515 9V5ZM472.751 9C473.856 9 474.751 8.10457 474.751 7C474.751 5.89543 473.856 5 472.751 5V9ZM482.899 5C481.794 5 480.899 5.89543 480.899 7C480.899 8.10457 481.794 9 482.899 9V5ZM499.135 9C500.239 9 501.135 8.10457 501.135 7C501.135 5.89543 500.239 5 499.135 5V9ZM509.282 5C508.178 5 507.282 5.89543 507.282 7C507.282 8.10457 508.178 9 509.282 9V5ZM525.518 9C526.623 9 527.518 8.10457 527.518 7C527.518 5.89543 526.623 5 525.518 5V9ZM535.666 5C534.561 5 533.666 5.89543 533.666 7C533.666 8.10457 534.561 9 535.666 9V5ZM551.901 9C553.006 9 553.901 8.10457 553.901 7C553.901 5.89543 553.006 5 551.901 5V9ZM562.049 5C560.944 5 560.049 5.89543 560.049 7C560.049 8.10457 560.944 9 562.049 9V5ZM578.285 9C579.39 9 580.285 8.10457 580.285 7C580.285 5.89543 579.39 5 578.285 5V9ZM588.432 5C587.328 5 586.432 5.89543 586.432 7C586.432 8.10457 587.328 9 588.432 9V5ZM604.668 9C605.773 9 606.668 8.10457 606.668 7C606.668 5.89543 605.773 5 604.668 5V9ZM614.816 5C613.711 5 612.816 5.89543 612.816 7C612.816 8.10457 613.711 9 614.816 9V5ZM625.945 8.25828C626.923 7.74414 627.298 6.53483 626.784 5.55721C626.27 4.5796 625.061 4.20389 624.083 4.71803L625.945 8.25828ZM625.128 3.67379C624.613 4.6514 624.989 5.86071 625.967 6.37486C626.944 6.88901 628.154 6.5133 628.668 5.53569L625.128 3.67379ZM4.59106 20.5244C4.59106 18.5871 5.0675 16.7669 5.90789 15.169L2.36764 13.3071C1.23254 15.4654 0.591064 17.923 0.591064 20.5244H4.59106ZM10.7601 10.3168C12.358 9.47643 14.1782 9 16.1155 9V5C13.514 5 11.0565 5.64147 8.89818 6.77657L10.7601 10.3168ZM16.1155 9H24.2335V5H16.1155V9ZM34.3809 9H50.6169V5H34.3809V9ZM60.7643 9H77.0003V5H60.7643V9ZM87.1477 9H103.384V5H87.1477V9ZM113.531 9H129.767V5H113.531V9ZM139.915 9H156.15V5H139.915V9ZM166.298 9H182.534V5H166.298V9ZM192.681 9H208.917V5H192.681V9ZM219.065 9H235.301V5H219.065V9ZM245.448 9H261.684V5H245.448V9ZM271.832 9H288.068V5H271.832V9ZM298.215 9H314.451V5H298.215V9ZM324.598 9H340.834V5H324.598V9ZM350.982 9H367.218V5H350.982V9ZM377.365 9H393.601V5H377.365V9ZM403.749 9H419.984V5H403.749V9ZM430.132 9H446.368V5H430.132V9ZM456.515 9H472.751V5H456.515V9ZM482.899 9H499.135V5H482.899V9ZM509.282 9H525.518V5H509.282V9ZM535.666 9H551.901V5H535.666V9ZM562.049 9H578.285V5H562.049V9ZM588.432 9H604.668V5H588.432V9ZM614.816 9H622.934V5H614.816V9ZM622.934 9C624.017 9 625.043 8.73251 625.945 8.25828L624.083 4.71803C623.742 4.89755 623.353 5 622.934 5V9ZM628.668 5.53569C629.142 4.63398 629.409 3.60749 629.409 2.52441H625.409C625.409 2.94334 625.307 3.33245 625.128 3.67379L628.668 5.53569Z" fill="#E86B35"/>
    </svg>