        <svg width="28" height="32" viewBox="0 0 28 32" fill="none" xmlns="http://www.w3.org/2000/svg">
          <path d="M26.0001 31.0244C27.1047 31.0244 28.0001 30.129 28.0001 29.0244C28.0001 27.9198 27.1047 27.0244 26.0001 27.0244V31.0244ZM14.5002 0.935547C13.3957 0.935547 12.5002 1.83098 12.5002 2.93555C12.5002 4.04012 13.3957 4.93555 14.5002 4.93555V0.935547ZM14.5002 4.93555C15.6048 4.93555 16.5002 4.04012 16.5002 2.93555C16.5002 1.83098 15.6048 0.935547 14.5002 0.935547V4.93555ZM2 27.0244C0.89543 27.0244 0 27.9198 0 29.0244C0 30.129 0.89543 31.0244 2 31.0244V27.0244ZM5.25509 30.2227C6.2327 29.7086 6.60842 28.4992 6.09427 27.5216C5.58012 26.544 4.37081 26.1683 3.3932 26.6825L5.25509 30.2227ZM4.65819 25.4175C4.14404 26.3951 4.51976 27.6044 5.49737 28.1185C6.47498 28.6327 7.68429 28.257 8.19844 27.2794L4.65819 25.4175ZM9.00015 19.8432C9.00015 18.7386 8.10472 17.8432 7.00015 17.8432C5.89558 17.8432 5.00015 18.7386 5.00015 19.8432H9.00015ZM5.00015 14.6168C5.00015 15.7213 5.89558 16.6168 7.00015 16.6168C8.10472 16.6168 9.00015 15.7213 9.00015 14.6168H5.00015ZM9.62801 7.88043C10.1422 6.90282 9.76644 5.69351 8.78883 5.17936C7.81121 4.66522 6.60191 5.04093 6.08776 6.01854L9.62801 7.88043ZM10.0831 2.02316C9.10553 2.53731 8.72981 3.74662 9.24396 4.72423C9.75811 5.70184 10.9674 6.07756 11.945 5.56341L10.0831 2.02316ZM17.0555 5.56341C18.0331 6.07756 19.2424 5.70184 19.7565 4.72423C20.2707 3.74662 19.895 2.53731 18.9174 2.02316L17.0555 5.56341ZM22.9127 6.01854C22.3986 5.04093 21.1893 4.66522 20.2117 5.17936C19.2341 5.69351 18.8583 6.90282 19.3725 7.88043L22.9127 6.01854ZM20.0003 14.9246C20.0003 16.0291 20.8958 16.9246 22.0003 16.9246C23.1049 16.9246 24.0003 16.0291 24.0003 14.9246H20.0003ZM24.0003 20.5357C24.0003 19.4311 23.1049 18.5357 22.0003 18.5357C20.8958 18.5357 20.0003 19.4311 20.0003 20.5357H24.0003ZM20.6877 27.8147C21.2018 28.7924 22.4111 29.1681 23.3887 28.6539C24.3663 28.1398 24.742 26.9305 24.2279 25.9529L20.6877 27.8147ZM25.0719 26.7969C24.0943 26.2827 22.885 26.6584 22.3708 27.636C21.8567 28.6137 22.2324 29.823 23.21 30.3371L25.0719 26.7969ZM2 31.0244C3.17109 31.0244 4.28054 30.7352 5.25509 30.2227L3.3932 26.6825C2.97902 26.9003 2.50695 27.0244 2 27.0244V31.0244ZM8.19844 27.2794C8.71097 26.3048 9.00015 25.1954 9.00015 24.0243H5.00015C5.00015 24.5312 4.87602 25.0033 4.65819 25.4175L8.19844 27.2794ZM9.00015 24.0243V19.8432H5.00015V24.0243H9.00015ZM9.00015 14.6168V10.4357H5.00015V14.6168H9.00015ZM9.00015 10.4357C9.00015 9.50921 9.2276 8.64178 9.62801 7.88043L6.08776 6.01854C5.39264 7.34026 5.00015 8.84507 5.00015 10.4357H9.00015ZM11.945 5.56341C12.7064 5.163 13.5738 4.93555 14.5002 4.93555V0.935547C12.9097 0.935547 11.4049 1.32804 10.0831 2.02316L11.945 5.56341ZM14.5002 4.93555C15.4267 4.93555 16.2941 5.163 17.0555 5.56341L18.9174 2.02316C17.5956 1.32804 16.0908 0.935547 14.5002 0.935547V4.93555ZM19.3725 7.88043C19.7729 8.64178 20.0003 9.50921 20.0003 10.4356H24.0003C24.0003 8.84507 23.6079 7.34026 22.9127 6.01854L19.3725 7.88043ZM20.0003 10.4356V14.9246H24.0003V10.4356H20.0003ZM20.0003 20.5357V25.0246H24.0003V20.5357H20.0003ZM20.0003 25.0246C20.0003 26.0279 20.2482 26.9791 20.6877 27.8147L24.2279 25.9529C24.0831 25.6776 24.0003 25.3637 24.0003 25.0246H20.0003ZM23.21 30.3371C24.0457 30.7766 24.9969 31.0244 26.0001 31.0244V27.0244C25.661 27.0244 25.3472 26.9416 25.0719 26.7969L23.21 30.3371Z" fill="#E86B35"/>
        </svg>
