        <svg width="28" height="19" viewBox="0 0 28 19" fill="none" xmlns="http://www.w3.org/2000/svg">
          <path d="M26.0001 18.0244C27.1047 18.0244 28.0001 17.129 28.0001 16.0244C28.0001 14.9198 27.1047 14.0244 26.0001 14.0244V18.0244ZM2 14.0244C0.89543 14.0244 0 14.9198 0 16.0244C0 17.129 0.89543 18.0244 2 18.0244V14.0244ZM4.7909 17.3369C5.76851 16.8228 6.14422 15.6135 5.63008 14.6358C5.11593 13.6582 3.90662 13.2825 2.92901 13.7967L4.7909 17.3369ZM3.77374 12.9519C3.25959 13.9295 3.6353 15.1389 4.61292 15.653C5.59053 16.1672 6.79984 15.7914 7.31399 14.8138L3.77374 12.9519ZM8.00149 11.1595C8.00149 10.0549 7.10605 9.15947 6.00149 9.15947C4.89692 9.15947 4.00149 10.0549 4.00149 11.1595H8.00149ZM4.00149 10.0801C4.00149 11.1847 4.89692 12.0801 6.00149 12.0801C7.10605 12.0801 8.00149 11.1847 8.00149 10.0801H4.00149ZM8.55017 6.98328C9.06431 6.00566 8.6886 4.79635 7.71099 4.28221C6.73337 3.76806 5.52406 4.14377 5.00992 5.12139L8.55017 6.98328ZM8.71394 1.41737C7.73633 1.93151 7.36061 3.14082 7.87476 4.11844C8.3889 5.09605 9.59821 5.47176 10.5758 4.95762L8.71394 1.41737ZM12.9274 4.40894C14.032 4.40894 14.9274 3.51351 14.9274 2.40894C14.9274 1.30437 14.032 0.408936 12.9274 0.408936V4.40894ZM13.0751 0.408936C11.9706 0.408936 11.0751 1.30437 11.0751 2.40894C11.0751 3.51351 11.9706 4.40894 13.0751 4.40894V0.408936ZM15.4267 4.95762C16.4043 5.47176 17.6136 5.09605 18.1278 4.11844C18.6419 3.14082 18.2662 1.93151 17.2886 1.41737L15.4267 4.95762ZM20.9926 5.12139C20.4785 4.14377 19.2692 3.76806 18.2916 4.28221C17.314 4.79636 16.9382 6.00567 17.4524 6.98328L20.9926 5.12139ZM18.0011 9.4655C18.0011 10.5701 18.8965 11.4655 20.0011 11.4655C21.1056 11.4655 22.0011 10.5701 22.0011 9.4655H18.0011ZM22.0011 9.77653C22.0011 8.67196 21.1056 7.77653 20.0011 7.77653C18.8965 7.77653 18.0011 8.67196 18.0011 9.77653H22.0011ZM18.917 13.7448C19.4312 14.7224 20.6405 15.0981 21.6181 14.5839C22.5957 14.0698 22.9714 12.8605 22.4573 11.8829L18.917 13.7448ZM24.1426 13.5682C23.165 13.0541 21.9557 13.4298 21.4415 14.4074C20.9274 15.385 21.3031 16.5943 22.2807 17.1085L24.1426 13.5682ZM2 18.0244C3.00352 18.0244 3.95503 17.7765 4.7909 17.3369L2.92901 13.7967C2.65351 13.9416 2.33937 14.0244 2 14.0244V18.0244ZM7.31399 14.8138C7.75359 13.978 8.00149 13.0264 8.00149 12.0229H4.00149C4.00149 12.3623 3.91863 12.6764 3.77374 12.9519L7.31399 14.8138ZM8.00149 12.0229V11.1595H4.00149V12.0229H8.00149ZM8.00149 10.0801V9.21667H4.00149V10.0801H8.00149ZM8.00149 9.21667C8.00149 8.40641 8.20032 7.64848 8.55017 6.98328L5.00992 5.12139C4.36537 6.34696 4.00149 7.74227 4.00149 9.21667H8.00149ZM10.5758 4.95762C11.241 4.60777 11.999 4.40894 12.8092 4.40894V0.408936C11.3348 0.408936 9.93951 0.772815 8.71394 1.41737L10.5758 4.95762ZM12.8092 4.40894H12.9274V0.408936H12.8092V4.40894ZM13.0751 4.40894H13.1933V0.408936H13.0751V4.40894ZM13.1933 4.40894C14.0036 4.40894 14.7615 4.60777 15.4267 4.95762L17.2886 1.41737C16.063 0.772815 14.6677 0.408936 13.1933 0.408936V4.40894ZM17.4524 6.98328C17.8022 7.64848 18.0011 8.40641 18.0011 9.21667H22.0011C22.0011 7.74227 21.6372 6.34696 20.9926 5.12139L17.4524 6.98328ZM18.0011 9.21667V9.4655H22.0011V9.21667H18.0011ZM18.0011 9.77653V10.0254H22.0011V9.77653H18.0011ZM18.0011 10.0254C18.0011 11.3641 18.3315 12.6315 18.917 13.7448L22.4573 11.8829C22.1665 11.33 22.0011 10.6999 22.0011 10.0254H18.0011ZM22.2807 17.1085C23.394 17.694 24.6614 18.0244 26.0001 18.0244V14.0244C25.3256 14.0244 24.6955 13.859 24.1426 13.5682L22.2807 17.1085Z" fill="#E86B35"/>
        </svg>