<svg width="64" height="19" viewBox="0 0 64 19" fill="none" xmlns="http://www.w3.org/2000/svg">
<path d="M0 18.0325H18V0.0324608H0V18.0325ZM24.6477 16.7725V3.68155H29.071C30.098 3.68155 30.9375 3.86692 31.5895 4.23766C32.2457 4.60414 32.7315 5.10059 33.0469 5.72701C33.3622 6.35343 33.5199 7.05229 33.5199 7.8236C33.5199 8.5949 33.3622 9.2959 33.0469 9.92658C32.7358 10.5573 32.2543 11.0601 31.6023 11.4351C30.9503 11.8058 30.1151 11.9912 29.0966 11.9912H25.9261V10.585H29.0455C29.7486 10.585 30.3132 10.4635 30.7393 10.2206C31.1655 9.97772 31.4744 9.64959 31.6662 9.23624C31.8622 8.81863 31.9602 8.34774 31.9602 7.8236C31.9602 7.29945 31.8622 6.8307 31.6662 6.41735C31.4744 6.00399 31.1634 5.68013 30.733 5.44576C30.3026 5.20712 29.7315 5.0878 29.0199 5.0878H26.233V16.7725H24.6477ZM39.7521 16.977C38.8658 16.977 38.0881 16.7661 37.419 16.3442C36.7543 15.9223 36.2344 15.3321 35.8594 14.5736C35.4886 13.8151 35.3033 12.9287 35.3033 11.9145C35.3033 10.8918 35.4886 9.99902 35.8594 9.23624C36.2344 8.47345 36.7543 7.88113 37.419 7.45925C38.0881 7.03738 38.8658 6.82644 39.7521 6.82644C40.6385 6.82644 41.4141 7.03738 42.0788 7.45925C42.7479 7.88113 43.2678 8.47345 43.6385 9.23624C44.0135 9.99902 44.201 10.8918 44.201 11.9145C44.201 12.9287 44.0135 13.8151 43.6385 14.5736C43.2678 15.3321 42.7479 15.9223 42.0788 16.3442C41.4141 16.7661 40.6385 16.977 39.7521 16.977ZM39.7521 15.6219C40.4254 15.6219 40.9794 15.4493 41.4141 15.1041C41.8487 14.759 42.1705 14.3051 42.3793 13.7426C42.5881 13.1801 42.6925 12.5708 42.6925 11.9145C42.6925 11.2583 42.5881 10.6468 42.3793 10.08C42.1705 9.51323 41.8487 9.05513 41.4141 8.7057C40.9794 8.35627 40.4254 8.18155 39.7521 8.18155C39.0788 8.18155 38.5249 8.35627 38.0902 8.7057C37.6555 9.05513 37.3338 9.51323 37.125 10.08C36.9162 10.6468 36.8118 11.2583 36.8118 11.9145C36.8118 12.5708 36.9162 13.1801 37.125 13.7426C37.3338 14.3051 37.6555 14.759 38.0902 15.1041C38.5249 15.4493 39.0788 15.6219 39.7521 15.6219ZM50.4924 16.977C49.5719 16.977 48.7793 16.7597 48.1145 16.325C47.4498 15.8904 46.9384 15.2916 46.5804 14.5289C46.2225 13.7661 46.0435 12.8946 46.0435 11.9145C46.0435 10.9173 46.2267 10.0374 46.5932 9.27459C46.964 8.50755 47.4796 7.90882 48.1401 7.47843C48.8049 7.04377 49.5804 6.82644 50.4668 6.82644C51.1571 6.82644 51.7793 6.95428 52.3333 7.20996C52.8873 7.46564 53.3411 7.8236 53.6948 8.28382C54.0485 8.74405 54.2679 9.28098 54.3532 9.89462H52.8446C52.7296 9.44718 52.4739 9.05087 52.0776 8.7057C51.6855 8.35627 51.1571 8.18155 50.4924 8.18155C49.9043 8.18155 49.3887 8.33496 48.9455 8.64178C48.5066 8.94434 48.1635 9.3726 47.9164 9.92658C47.6735 10.4763 47.552 11.1219 47.552 11.8634C47.552 12.6219 47.6713 13.2824 47.91 13.8449C48.1529 14.4074 48.4938 14.8442 48.9327 15.1553C49.3759 15.4664 49.8958 15.6219 50.4924 15.6219C50.8844 15.6219 51.2402 15.5537 51.5598 15.4173C51.8794 15.281 52.15 15.085 52.3716 14.8293C52.5932 14.5736 52.7509 14.2668 52.8446 13.9088H54.3532C54.2679 14.4884 54.057 15.0104 53.7203 15.4749C53.388 15.9351 52.9469 16.3016 52.3972 16.5743C51.8517 16.8428 51.2168 16.977 50.4924 16.977ZM55.785 8.36053V6.95428H63.7623V8.36053H60.5407V16.7725H59.0321V8.36053H55.785Z" fill="#667085"/>
</svg>
