<svg width="84" height="21" viewBox="0 0 84 21" fill="none" xmlns="http://www.w3.org/2000/svg">
<path d="M0 18.0325H18V0.0324608H0V18.0325ZM28.8409 16.9514C27.9972 16.9514 27.245 16.8066 26.5845 16.5168C25.9283 16.227 25.4063 15.8243 25.0185 15.3087C24.6349 14.7888 24.4261 14.1858 24.392 13.4997H26.0028C26.0369 13.9216 26.1818 14.286 26.4375 14.5928C26.6932 14.8953 27.0277 15.1297 27.4411 15.2959C27.8544 15.4621 28.3125 15.5452 28.8153 15.5452C29.3778 15.5452 29.8764 15.4472 30.3111 15.2512C30.7457 15.0551 31.0866 14.7824 31.3338 14.433C31.581 14.0835 31.7045 13.6787 31.7045 13.2185C31.7045 12.7369 31.5852 12.3129 31.3466 11.9465C31.108 11.5757 30.7585 11.286 30.2983 11.0771C29.8381 10.8683 29.2756 10.7639 28.6108 10.7639H27.5625V9.35769H28.6108C29.1307 9.35769 29.5866 9.26394 29.9787 9.07644C30.375 8.88894 30.6839 8.62473 30.9055 8.28382C31.1314 7.94292 31.2443 7.54235 31.2443 7.08212C31.2443 6.63894 31.1463 6.25328 30.9503 5.92516C30.7543 5.59703 30.4773 5.34135 30.1193 5.15811C29.7656 4.97488 29.348 4.88326 28.8665 4.88326C28.4148 4.88326 27.9886 4.96635 27.5881 5.13255C27.1918 5.29448 26.8679 5.53098 26.6165 5.84206C26.3651 6.14888 26.2287 6.51962 26.2074 6.95428H24.6733C24.6989 6.2682 24.9055 5.66735 25.2933 5.15172C25.6811 4.63184 26.1882 4.22701 26.8146 3.93723C27.4453 3.64746 28.1378 3.50257 28.892 3.50257C29.7017 3.50257 30.3963 3.66664 30.9759 3.99476C31.5554 4.31863 32.0007 4.74689 32.3118 5.27956C32.6229 5.81223 32.7784 6.38752 32.7784 7.00542C32.7784 7.74263 32.5845 8.37118 32.1967 8.89107C31.8132 9.41096 31.2912 9.77104 30.6307 9.97132V10.0736C31.4574 10.21 32.103 10.5615 32.5675 11.1283C33.032 11.6908 33.2642 12.3875 33.2642 13.2185C33.2642 13.9301 33.0703 14.5693 32.6825 15.1361C32.299 15.6986 31.7749 16.1418 31.1101 16.4656C30.4453 16.7895 29.6889 16.9514 28.8409 16.9514ZM38.7933 17.0026C38.1712 17.0026 37.6065 16.8854 37.0994 16.651C36.5923 16.4124 36.1896 16.0693 35.8913 15.6219C35.593 15.1702 35.4439 14.6247 35.4439 13.9855C35.4439 13.423 35.5547 12.9671 35.7763 12.6176C35.9979 12.2639 36.294 11.9869 36.6648 11.7867C37.0355 11.5864 37.4446 11.4372 37.892 11.3392C38.3438 11.2369 38.7976 11.156 39.2536 11.0963C39.8501 11.0196 40.3338 10.9621 40.7045 10.9237C41.0795 10.8811 41.3523 10.8108 41.5227 10.7128C41.6974 10.6148 41.7848 10.4443 41.7848 10.2014V10.1503C41.7848 9.51962 41.6122 9.02956 41.267 8.68013C40.9261 8.3307 40.4084 8.15598 39.7138 8.15598C38.9936 8.15598 38.429 8.31365 38.0199 8.62899C37.6108 8.94434 37.3232 9.28098 37.157 9.63894L35.7251 9.12757C35.9808 8.53098 36.3217 8.06649 36.7479 7.73411C37.1783 7.39746 37.647 7.16309 38.1541 7.03098C38.6655 6.89462 39.1683 6.82644 39.6626 6.82644C39.978 6.82644 40.3402 6.86479 40.7493 6.94149C41.1626 7.01394 41.5611 7.16522 41.9446 7.39533C42.3324 7.62544 42.6541 7.97275 42.9098 8.43723C43.1655 8.90172 43.2933 9.52388 43.2933 10.3037V16.7725H41.7848V15.4429H41.7081C41.6058 15.656 41.4354 15.884 41.1967 16.1269C40.9581 16.3698 40.6406 16.5764 40.2443 16.7469C39.848 16.9173 39.3643 17.0026 38.7933 17.0026ZM39.0234 15.6475C39.62 15.6475 40.1229 15.5303 40.532 15.2959C40.9453 15.0615 41.2564 14.759 41.4652 14.3882C41.6783 14.0175 41.7848 13.6276 41.7848 13.2185V11.8378C41.7209 11.9145 41.5803 11.9848 41.3629 12.0487C41.1499 12.1084 40.9027 12.1617 40.6214 12.2085C40.3445 12.2512 40.0739 12.2895 39.8097 12.3236C39.5497 12.3534 39.3388 12.379 39.1768 12.4003C38.7848 12.4514 38.4183 12.5345 38.0774 12.6496C37.7408 12.7604 37.468 12.9287 37.2592 13.1546C37.0547 13.3762 36.9524 13.6787 36.9524 14.0622C36.9524 14.5864 37.1463 14.9827 37.5341 15.2512C37.9261 15.5154 38.4226 15.6475 39.0234 15.6475ZM46.0467 16.7725V6.95428H53.7683V16.7725H52.2598V8.36053H47.5552V16.7725H46.0467ZM57.1433 20.4543C56.8876 20.4543 56.6596 20.433 56.4593 20.3904C56.2591 20.352 56.1206 20.3137 56.0439 20.2753L56.4274 18.9458C56.7939 19.0395 57.1177 19.0736 57.399 19.048C57.6802 19.0225 57.9295 18.8968 58.1468 18.6709C58.3684 18.4493 58.5708 18.0892 58.7541 17.5906L59.0353 16.8236L55.4047 6.95428H57.041L59.7512 14.7781H59.8535L62.5637 6.95428H64.2001L60.0325 18.2043C59.845 18.7114 59.6127 19.1311 59.3358 19.4635C59.0588 19.8002 58.737 20.0494 58.3706 20.2114C58.0083 20.3733 57.5993 20.4543 57.1433 20.4543ZM69.8283 16.977C68.9078 16.977 68.1152 16.7597 67.4505 16.325C66.7857 15.8904 66.2743 15.2916 65.9164 14.5289C65.5584 13.7661 65.3794 12.8946 65.3794 11.9145C65.3794 10.9173 65.5627 10.0374 65.9292 9.27459C66.2999 8.50755 66.8155 7.90882 67.476 7.47843C68.1408 7.04377 68.9164 6.82644 69.8027 6.82644C70.4931 6.82644 71.1152 6.95428 71.6692 7.20996C72.2232 7.46564 72.677 7.8236 73.0307 8.28382C73.3844 8.74405 73.6039 9.28098 73.6891 9.89462H72.1806C72.0655 9.44718 71.8098 9.05087 71.4135 8.7057C71.0215 8.35627 70.4931 8.18155 69.8283 8.18155C69.2402 8.18155 68.7246 8.33496 68.2814 8.64178C67.8425 8.94434 67.4995 9.3726 67.2523 9.92658C67.0094 10.4763 66.888 11.1219 66.888 11.8634C66.888 12.6219 67.0073 13.2824 67.2459 13.8449C67.4888 14.4074 67.8297 14.8442 68.2686 15.1553C68.7118 15.4664 69.2317 15.6219 69.8283 15.6219C70.2203 15.6219 70.5762 15.5537 70.8958 15.4173C71.2154 15.281 71.486 15.085 71.7076 14.8293C71.9292 14.5736 72.0868 14.2668 72.1806 13.9088H73.6891C73.6039 14.4884 73.3929 15.0104 73.0563 15.4749C72.7239 15.9351 72.2828 16.3016 71.7331 16.5743C71.1877 16.8428 70.5527 16.977 69.8283 16.977ZM75.8944 16.7725V6.95428H77.4029V11.2242H78.4L81.9284 6.95428H83.8716L79.9086 11.6844L83.9228 16.7725H81.9796L78.758 12.6304H77.4029V16.7725H75.8944Z" fill="#667085"/>
</svg>
