<svg width="147" height="21" viewBox="0 0 147 21" fill="none" xmlns="http://www.w3.org/2000/svg">
<path d="M0 18.0325H18V0.0324608H0V18.0325ZM34.4403 3.68155V16.7725H32.8551V5.0878H26.2585V16.7725H24.6733V3.68155H34.4403ZM41.4221 16.977C40.5357 16.977 39.758 16.7661 39.089 16.3442C38.4242 15.9223 37.9043 15.3321 37.5293 14.5736C37.1586 13.8151 36.9732 12.9287 36.9732 11.9145C36.9732 10.8918 37.1586 9.99902 37.5293 9.23624C37.9043 8.47345 38.4242 7.88113 39.089 7.45925C39.758 7.03738 40.5357 6.82644 41.4221 6.82644C42.3084 6.82644 43.084 7.03738 43.7488 7.45925C44.4178 7.88113 44.9377 8.47345 45.3084 9.23624C45.6834 9.99902 45.8709 10.8918 45.8709 11.9145C45.8709 12.9287 45.6834 13.8151 45.3084 14.5736C44.9377 15.3321 44.4178 15.9223 43.7488 16.3442C43.084 16.7661 42.3084 16.977 41.4221 16.977ZM41.4221 15.6219C42.0953 15.6219 42.6493 15.4493 43.084 15.1041C43.5186 14.759 43.8404 14.3051 44.0492 13.7426C44.258 13.1801 44.3624 12.5708 44.3624 11.9145C44.3624 11.2583 44.258 10.6468 44.0492 10.08C43.8404 9.51323 43.5186 9.05513 43.084 8.7057C42.6493 8.35627 42.0953 8.18155 41.4221 8.18155C40.7488 8.18155 40.1948 8.35627 39.7601 8.7057C39.3255 9.05513 39.0037 9.51323 38.7949 10.08C38.5861 10.6468 38.4817 11.2583 38.4817 11.9145C38.4817 12.5708 38.5861 13.1801 38.7949 13.7426C39.0037 14.3051 39.3255 14.759 39.7601 15.1041C40.1948 15.4493 40.7488 15.6219 41.4221 15.6219ZM47.1254 19.585V15.3662H47.9435C48.1438 15.1574 48.3164 14.9316 48.4613 14.6887C48.6062 14.4458 48.7319 14.1581 48.8384 13.8257C48.9492 13.4891 49.043 13.08 49.1197 12.5985C49.1964 12.1127 49.2646 11.5267 49.3242 10.8406L49.6566 6.95428H55.8952V15.3662H57.4038V19.585H55.8952V16.7725H48.6339V19.585H47.1254ZM49.6566 15.3662H54.3867V8.36053H51.0629L50.8072 10.8406C50.7006 11.8676 50.5685 12.7646 50.4109 13.5317C50.2532 14.2987 50.0018 14.9102 49.6566 15.3662ZM58.3578 19.585V15.3662H59.176C59.3762 15.1574 59.5488 14.9316 59.6937 14.6887C59.8386 14.4458 59.9643 14.1581 60.0708 13.8257C60.1816 13.4891 60.2754 13.08 60.3521 12.5985C60.4288 12.1127 60.497 11.5267 60.5566 10.8406L60.889 6.95428H67.1277V15.3662H68.6362V19.585H67.1277V16.7725H59.8663V19.585H58.3578ZM60.889 15.3662H65.6191V8.36053H62.2953L62.0396 10.8406C61.9331 11.8676 61.801 12.7646 61.6433 13.5317C61.4856 14.2987 61.2342 14.9102 60.889 15.3662ZM74.755 16.977C73.8089 16.977 72.9929 16.7682 72.3068 16.3506C71.625 15.9287 71.0987 15.3406 70.728 14.5864C70.3615 13.8279 70.1783 12.9458 70.1783 11.9401C70.1783 10.9344 70.3615 10.048 70.728 9.28098C71.0987 8.50968 71.6143 7.90882 72.2749 7.47843C72.9396 7.04377 73.7152 6.82644 74.6016 6.82644C75.1129 6.82644 75.6179 6.91167 76.1165 7.08212C76.6151 7.25257 77.0689 7.52956 77.478 7.91309C77.8871 8.29235 78.2131 8.79519 78.456 9.42161C78.6989 10.048 78.8203 10.8193 78.8203 11.7355V12.3747H71.2521V11.0708H77.2862C77.2862 10.5168 77.1754 10.0225 76.9538 9.5878C76.7365 9.15314 76.4254 8.8101 76.0206 8.55868C75.62 8.30726 75.147 8.18155 74.6016 8.18155C74.0007 8.18155 73.4808 8.3307 73.0419 8.62899C72.6072 8.92303 72.2727 9.30655 72.0384 9.77956C71.804 10.2526 71.6868 10.7597 71.6868 11.3009V12.1702C71.6868 12.9117 71.8146 13.5402 72.0703 14.0558C72.3303 14.5672 72.6903 14.9571 73.1506 15.2256C73.6108 15.4898 74.1456 15.6219 74.755 15.6219C75.1513 15.6219 75.5092 15.5665 75.8288 15.4557C76.1527 15.3406 76.4318 15.1702 76.6662 14.9443C76.9006 14.7142 77.0817 14.4287 77.2095 14.0878L78.6669 14.4969C78.5135 14.9912 78.2557 15.4259 77.8935 15.8009C77.5313 16.1716 77.0838 16.4614 76.5511 16.6702C76.0185 16.8747 75.4197 16.977 74.755 16.977ZM81.1151 20.4543V6.95428H82.5724V8.51394H82.7514C82.8622 8.34348 83.0156 8.12615 83.2116 7.86195C83.4119 7.59348 83.6974 7.35485 84.0682 7.14604C84.4432 6.93297 84.9503 6.82644 85.5895 6.82644C86.4162 6.82644 87.1449 7.03311 87.7756 7.44647C88.4063 7.85982 88.8984 8.44576 89.2521 9.20428C89.6058 9.9628 89.7827 10.8577 89.7827 11.8889C89.7827 12.9287 89.6058 13.83 89.2521 14.5928C88.8984 15.3513 88.4084 15.9394 87.782 16.357C87.1555 16.7703 86.4332 16.977 85.6151 16.977C84.9844 16.977 84.4794 16.8726 84.1001 16.6638C83.7209 16.4507 83.429 16.21 83.2244 15.9415C83.0199 15.6688 82.8622 15.4429 82.7514 15.2639H82.6236V20.4543H81.1151ZM82.598 11.8634C82.598 12.6048 82.7067 13.259 82.924 13.8257C83.1413 14.3882 83.4588 14.8293 83.8764 15.1489C84.294 15.4642 84.8054 15.6219 85.4105 15.6219C86.0412 15.6219 86.5675 15.4557 86.9893 15.1233C87.4155 14.7867 87.7351 14.335 87.9482 13.7682C88.1655 13.1972 88.2741 12.5622 88.2741 11.8634C88.2741 11.173 88.1676 10.5509 87.9545 9.99689C87.7457 9.43865 87.4283 8.9976 87.0021 8.67374C86.5803 8.34561 86.0497 8.18155 85.4105 8.18155C84.7969 8.18155 84.2813 8.33709 83.8636 8.64817C83.446 8.95499 83.1307 9.38539 82.9176 9.93936C82.7045 10.4891 82.598 11.1304 82.598 11.8634ZM91.0659 16.7725L95.0545 11.7867L91.117 6.95428H92.9068L96.1795 11.1475H96.9977V6.95428H98.5062V11.1475H99.2988L102.572 6.95428H104.361L100.449 11.7867L104.412 16.7725H102.597L99.2733 12.5537H98.5062V16.7725H96.9977V12.5537H96.2306L92.8812 16.7725H91.0659ZM109.457 17.0026C108.835 17.0026 108.271 16.8854 107.763 16.651C107.256 16.4124 106.854 16.0693 106.555 15.6219C106.257 15.1702 106.108 14.6247 106.108 13.9855C106.108 13.423 106.219 12.9671 106.44 12.6176C106.662 12.2639 106.958 11.9869 107.329 11.7867C107.7 11.5864 108.109 11.4372 108.556 11.3392C109.008 11.2369 109.462 11.156 109.918 11.0963C110.514 11.0196 110.998 10.9621 111.369 10.9237C111.744 10.8811 112.016 10.8108 112.187 10.7128C112.362 10.6148 112.449 10.4443 112.449 10.2014V10.1503C112.449 9.51962 112.276 9.02956 111.931 8.68013C111.59 8.3307 111.072 8.15598 110.378 8.15598C109.658 8.15598 109.093 8.31365 108.684 8.62899C108.275 8.94434 107.987 9.28098 107.821 9.63894L106.389 9.12757C106.645 8.53098 106.986 8.06649 107.412 7.73411C107.842 7.39746 108.311 7.16309 108.818 7.03098C109.33 6.89462 109.832 6.82644 110.327 6.82644C110.642 6.82644 111.004 6.86479 111.413 6.94149C111.827 7.01394 112.225 7.16522 112.609 7.39533C112.996 7.62544 113.318 7.97275 113.574 8.43723C113.83 8.90172 113.957 9.52388 113.957 10.3037V16.7725H112.449V15.4429H112.372C112.27 15.656 112.099 15.884 111.861 16.1269C111.622 16.3698 111.305 16.5764 110.908 16.7469C110.512 16.9173 110.028 17.0026 109.457 17.0026ZM109.688 15.6475C110.284 15.6475 110.787 15.5303 111.196 15.2959C111.609 15.0615 111.92 14.759 112.129 14.3882C112.342 14.0175 112.449 13.6276 112.449 13.2185V11.8378C112.385 11.9145 112.244 11.9848 112.027 12.0487C111.814 12.1084 111.567 12.1617 111.286 12.2085C111.009 12.2512 110.738 12.2895 110.474 12.3236C110.214 12.3534 110.003 12.379 109.841 12.4003C109.449 12.4514 109.082 12.5345 108.741 12.6496C108.405 12.7604 108.132 12.9287 107.923 13.1546C107.719 13.3762 107.616 13.6787 107.616 14.0622C107.616 14.5864 107.81 14.9827 108.198 15.2512C108.59 15.5154 109.087 15.6475 109.688 15.6475ZM123.282 11.173V12.5793H117.861V11.173H123.282ZM118.219 6.95428V16.7725H116.711V6.95428H118.219ZM124.432 6.95428V16.7725H122.924V6.95428H124.432ZM128.696 14.548L133.426 6.95428H135.165V16.7725H133.656V9.17871L128.952 16.7725H127.187V6.95428H128.696V14.548ZM142.044 16.977C141.098 16.977 140.282 16.7682 139.596 16.3506C138.914 15.9287 138.388 15.3406 138.017 14.5864C137.651 13.8279 137.467 12.9458 137.467 11.9401C137.467 10.9344 137.651 10.048 138.017 9.28098C138.388 8.50968 138.903 7.90882 139.564 7.47843C140.229 7.04377 141.004 6.82644 141.891 6.82644C142.402 6.82644 142.907 6.91167 143.406 7.08212C143.904 7.25257 144.358 7.52956 144.767 7.91309C145.176 8.29235 145.502 8.79519 145.745 9.42161C145.988 10.048 146.109 10.8193 146.109 11.7355V12.3747H138.541V11.0708H144.575C144.575 10.5168 144.464 10.0225 144.243 9.5878C144.026 9.15314 143.714 8.8101 143.31 8.55868C142.909 8.30726 142.436 8.18155 141.891 8.18155C141.29 8.18155 140.77 8.3307 140.331 8.62899C139.896 8.92303 139.562 9.30655 139.327 9.77956C139.093 10.2526 138.976 10.7597 138.976 11.3009V12.1702C138.976 12.9117 139.104 13.5402 139.359 14.0558C139.619 14.5672 139.979 14.9571 140.44 15.2256C140.9 15.4898 141.435 15.6219 142.044 15.6219C142.44 15.6219 142.798 15.5665 143.118 15.4557C143.442 15.3406 143.721 15.1702 143.955 14.9443C144.19 14.7142 144.371 14.4287 144.499 14.0878L145.956 14.4969C145.803 14.9912 145.545 15.4259 145.183 15.8009C144.82 16.1716 144.373 16.4614 143.84 16.6702C143.308 16.8747 142.709 16.977 142.044 16.977Z" fill="#667085"/>
</svg>
