<svg width="137" height="24" viewBox="0 0 137 24" fill="none" xmlns="http://www.w3.org/2000/svg">
<path d="M0.986607 23.2026V0.345492H5.8192V9.7763H15.6295V0.345492H20.4509V23.2026H15.6295V13.7607H5.8192V23.2026H0.986607ZM28.375 23.2026H23.1964L31.0871 0.345492H37.3147L45.1942 23.2026H40.0156L34.2902 5.56871H34.1116L28.375 23.2026ZM28.0513 14.2183H40.2835V17.9906H28.0513V14.2183ZM47.9453 23.2026V0.345492H56.9632C58.6894 0.345492 60.1626 0.654271 61.3828 1.27183C62.6105 1.88195 63.5443 2.74877 64.1842 3.87228C64.8315 4.98835 65.1551 6.30159 65.1551 7.81201C65.1551 9.32987 64.8278 10.6357 64.173 11.7294C63.5182 12.8157 62.5696 13.6491 61.327 14.2294C60.0919 14.8098 58.5964 15.1 56.8404 15.1H50.8025V11.216H56.0592C56.9818 11.216 57.7481 11.0895 58.3583 10.8366C58.9684 10.5836 59.4223 10.2041 59.7199 9.69817C60.0249 9.19222 60.1775 8.5635 60.1775 7.81201C60.1775 7.05308 60.0249 6.4132 59.7199 5.89237C59.4223 5.37153 58.9647 4.97719 58.3471 4.70933C57.737 4.43403 56.9669 4.29639 56.0368 4.29639H52.7779V23.2026H47.9453ZM60.2891 12.8009L65.9699 23.2026H60.6351L55.077 12.8009H60.2891ZM68.5703 0.345492H74.5301L80.8248 15.7026H81.0926L87.3873 0.345492H93.3471V23.2026H88.6596V8.3254H88.4699L82.5547 23.091H79.3627L73.4475 8.2696H73.2578V23.2026H68.5703V0.345492ZM97.3287 23.2026V0.345492H112.73V4.32987H102.161V9.7763H111.938V13.7607H102.161V19.2183H112.775V23.2026H97.3287ZM121.104 0.345492L125.713 8.13567H125.892L130.523 0.345492H135.981L129.006 11.7741L136.137 23.2026H130.579L125.892 15.4013H125.713L121.026 23.2026H115.49L122.644 11.7741L115.624 0.345492H121.104Z" fill="white"/>
</svg>
