<svg width="20" height="15" viewBox="0 0 20 15" fill="none" xmlns="http://www.w3.org/2000/svg">
<path d="M13.0938 7.20264H6.90625C5.95859 7.20264 5.1875 7.97339 5.1875 8.92139C5.1875 9.86938 5.95859 10.6401 6.90625 10.6401H13.0938C14.0417 10.6401 14.8125 9.86938 14.8125 8.92139C14.8125 7.97339 14.0417 7.20264 13.0938 7.20264ZM7.59375 9.95264C7.02509 9.95264 6.5625 9.49005 6.5625 8.92139C6.5625 8.35272 7.02509 7.89014 7.59375 7.89014C8.16241 7.89014 8.625 8.35272 8.625 8.92139C8.625 9.49005 8.16241 9.95264 7.59375 9.95264ZM12.4062 9.95264C11.8376 9.95264 11.375 9.49005 11.375 8.92139C11.375 8.35272 11.8376 7.89014 12.4062 7.89014C12.9749 7.89014 13.4375 8.35272 13.4375 8.92139C13.4375 9.49005 12.9749 9.95264 12.4062 9.95264ZM18.9375 7.95346V2.32682C19.3368 2.18444 19.625 1.80645 19.625 1.35889C19.625 0.790222 19.1624 0.327637 18.5938 0.327637C18.0251 0.327637 17.5625 0.790222 17.5625 1.35889C17.5625 1.80645 17.8507 2.18444 18.25 2.32682V7.95346C18.1091 8.00373 17.9814 8.08094 17.8762 8.18316C16.8281 4.83017 13.694 2.39014 10 2.39014C6.30628 2.39014 3.17196 4.83021 2.12384 8.1832C2.01864 8.08094 1.89091 8.00373 1.75 7.95346V2.32682C2.14927 2.18444 2.4375 1.80645 2.4375 1.35889C2.4375 0.790222 1.97491 0.327637 1.40625 0.327637C0.837585 0.327637 0.375 0.790222 0.375 1.35889C0.375 1.80645 0.663235 2.18444 1.0625 2.32682V7.95346C0.663235 8.09583 0.375 8.47382 0.375 8.92139V11.6714C0.375 12.2401 0.837585 12.7026 1.40625 12.7026C1.7299 12.7026 2.01562 12.5498 2.20482 12.3158C2.79501 13.3616 3.90356 14.0776 5.1875 14.0776H14.8125C16.0964 14.0776 17.205 13.3616 17.7952 12.3158C17.9844 12.5498 18.2701 12.7026 18.5938 12.7026C19.1624 12.7026 19.625 12.2401 19.625 11.6714V8.92139C19.625 8.47382 19.3368 8.09583 18.9375 7.95346ZM13.0938 11.3276H6.90625C5.57959 11.3276 4.5 10.248 4.5 8.92139C4.5 7.59473 5.57959 6.51514 6.90625 6.51514H13.0938C14.4204 6.51514 15.5 7.59473 15.5 8.92139C15.5 10.248 14.4204 11.3276 13.0938 11.3276Z" fill="#47A4D2"/>
</svg>
