<svg width="20" height="21" viewBox="0 0 20 21" fill="none" xmlns="http://www.w3.org/2000/svg">
<g clip-path="url(#clip0_2301_2286)">
<circle cx="10" cy="10.2026" r="9" fill="white"/>
<path fill-rule="evenodd" clip-rule="evenodd" d="M10 0.202637C4.4775 0.202637 0 4.68014 0 10.2026C0 15.7251 4.4775 20.2026 10 20.2026C15.5225 20.2026 20 15.7251 20 10.2026C20 4.68014 15.5225 0.202637 10 0.202637ZM14.635 7.00347C14.485 8.5843 13.8333 12.4218 13.5025 14.1926C13.3625 14.9426 13.0858 15.1935 12.8192 15.2176C12.2383 15.271 11.7975 14.8335 11.235 14.4651C10.355 13.8885 9.8575 13.5293 9.00333 12.966C8.01583 12.3151 8.65583 11.9576 9.21833 11.3735C9.36583 11.2201 11.9242 8.89264 11.9742 8.6818C11.98 8.65514 11.9867 8.5568 11.9275 8.50514C11.8683 8.45347 11.7825 8.47097 11.7208 8.48514C11.6325 8.50514 10.2267 9.4343 7.5025 11.2726C7.10333 11.5468 6.74167 11.6801 6.4175 11.6735C6.06083 11.666 5.37417 11.4718 4.86333 11.3051C4.2375 11.1018 3.73917 10.9935 3.7825 10.6485C3.805 10.4685 4.0525 10.2843 4.52583 10.096C7.44083 8.82597 9.385 7.98847 10.3575 7.58347C13.135 6.42847 13.7117 6.22764 14.0883 6.22097C14.56 6.2143 14.6733 6.60347 14.635 7.00347Z" fill="#47A4D2"/>
</g>
<defs>
<clipPath id="clip0_2301_2286">
<rect width="20" height="20" fill="white" transform="translate(0 0.202637)"/>
</clipPath>
</defs>
</svg>
